<?xml version="1.0" encoding="utf-8"?>
<!-- Svg Vector Icons : http://www.onlinewebfonts.com/icon -->
<!DOCTYPE svg PUBLIC "-//W3C//DTD SVG 1.1//EN" "http://www.w3.org/Graphics/SVG/1.1/DTD/svg11.dtd">
<svg version="1.1" xmlns="http://www.w3.org/2000/svg" xmlns:xlink="http://www.w3.org/1999/xlink" x="0px" y="0px" viewBox="0 0 1000 1000" enable-background="new 0 0 1000 1000" xml:space="preserve">
<metadata> Svg Vector Icons : http://www.onlinewebfonts.com/icon </metadata>
<g><path d="M236.8,10c42,0,73.4,6.3,94,18.8c20.6,12.5,35.4,26.5,44.3,41.8c9.7,17.8,14.1,38,13.3,60.6v218.3c45.3-52.6,111.2-78.8,197.7-78.8c47.7,0,91,7.9,129.8,23.7c38.8,15.8,71.8,38.6,98.8,68.5c27.1,29.9,47.9,66.5,62.5,109.8C891.8,516,899,565.1,899,620.1c0,58.2-7.7,110.2-23,155.9c-15.4,45.7-37,84.5-64.9,116.4c-27.9,31.9-61,56.2-99.5,72.8C673.2,981.7,631,990,584.9,990c-42.9,0-82.5-7.9-118.9-23.7c-36.4-15.8-66.7-39-91-69.7c-4.9,16.2-12.9,30.3-24.3,42.5c-9.7,11.3-23,21.2-40,29.7c-17,8.5-39.6,12.7-67.9,12.7c-31.5,0-56.2-5.3-74-15.8s-31.1-22.6-40-36.4c-9.7-14.6-15.8-31.9-18.2-52.2c19.4,0.8,34.2-1.2,44.3-6.1c10.1-4.9,17.6-11.3,22.4-19.4c4.9-8.1,7.5-17.6,7.9-28.5c0.4-10.9,0.6-22,0.6-33.4V215c0-34.8-5.5-59.4-16.4-74c-10.9-14.6-33.8-22.6-68.5-24.3c0-11.3,3.2-23.2,9.7-35.8c6.5-12.5,15.6-24.1,27.3-34.6c11.7-10.5,25.9-19.2,42.5-26.1C197,13.4,215.8,10,236.8,10L236.8,10z M532.7,880.8c48.5,0,85.3-20.4,110.4-61.3c25.1-40.8,37.6-102.1,37.6-183.7c0-90.6-13.1-158.3-39.4-203.2c-26.3-44.9-64.1-67.3-113.4-67.3c-43.7,0-79,19-106.1,57c-27.1,38-40.6,92.6-40.6,163.7v71.6c0,72,14.1,127.1,42.5,165.6C451.9,861.6,488.3,880.8,532.7,880.8L532.7,880.8z"/></g>
</svg>